<mxfile host="app.diagrams.net" agent="Mozilla/5.0 (X11; Ubuntu; Linux x86_64; rv:136.0) Gecko/20100101 Firefox/136.0" version="28.0.9">
  <diagram name="Page-1" id="xIOkTCL3K24IWR9tix57">
    <mxGraphModel dx="786" dy="711" grid="1" gridSize="10" guides="1" tooltips="1" connect="1" arrows="1" fold="1" page="1" pageScale="1" pageWidth="827" pageHeight="1169" math="0" shadow="0">
      <root>
        <mxCell id="0" />
        <mxCell id="1" style="" parent="0" />
        <mxCell id="4FT238xs0-JWQUUgrjXr-97" value="" style="rounded=1;whiteSpace=wrap;html=1;shadow=1;treeFolding=0;treeMoving=0;fixDash=0;collapsible=0;recursiveResize=1;expand=1;backgroundOutline=0;movableLabel=0;autosize=0;fixedWidth=0;comic=0;" parent="1" vertex="1">
          <mxGeometry x="180" y="200" width="460" height="290" as="geometry" />
        </mxCell>
        <mxCell id="4FT238xs0-JWQUUgrjXr-94" value="" style="rounded=1;whiteSpace=wrap;html=1;shadow=1;treeFolding=0;treeMoving=0;fixDash=0;collapsible=0;recursiveResize=1;expand=1;backgroundOutline=0;movableLabel=0;autosize=0;fixedWidth=0;comic=0;" parent="1" vertex="1">
          <mxGeometry x="190" y="210" width="440" height="260" as="geometry" />
        </mxCell>
        <mxCell id="4FT238xs0-JWQUUgrjXr-66" value="" style="rounded=1;whiteSpace=wrap;html=1;shadow=1;treeFolding=0;treeMoving=0;fixDash=0;collapsible=0;recursiveResize=1;expand=1;backgroundOutline=0;movableLabel=0;autosize=0;fixedWidth=0;comic=0;" parent="1" vertex="1">
          <mxGeometry x="200" y="220" width="420" height="230" as="geometry" />
        </mxCell>
        <mxCell id="4FT238xs0-JWQUUgrjXr-63" value="" style="rounded=1;whiteSpace=wrap;html=1;shadow=1;glass=0;perimeterSpacing=1;" parent="1" vertex="1">
          <mxGeometry x="217.5" y="230" width="385" height="200" as="geometry" />
        </mxCell>
        <mxCell id="4FT238xs0-JWQUUgrjXr-21" style="edgeStyle=orthogonalEdgeStyle;rounded=0;orthogonalLoop=1;jettySize=auto;html=1;exitX=0.5;exitY=1;exitDx=0;exitDy=0;entryX=0;entryY=0.5;entryDx=0;entryDy=0;shadow=1;" parent="1" source="4FT238xs0-JWQUUgrjXr-1" target="4FT238xs0-JWQUUgrjXr-4" edge="1">
          <mxGeometry relative="1" as="geometry" />
        </mxCell>
        <mxCell id="4FT238xs0-JWQUUgrjXr-22" style="edgeStyle=orthogonalEdgeStyle;rounded=0;orthogonalLoop=1;jettySize=auto;html=1;exitX=1;exitY=0.5;exitDx=0;exitDy=0;entryX=0;entryY=0.5;entryDx=0;entryDy=0;shadow=1;" parent="1" source="4FT238xs0-JWQUUgrjXr-1" target="4FT238xs0-JWQUUgrjXr-2" edge="1">
          <mxGeometry relative="1" as="geometry" />
        </mxCell>
        <mxCell id="4FT238xs0-JWQUUgrjXr-1" value="&lt;div&gt;Zabbix&lt;/div&gt;" style="html=1;whiteSpace=wrap;shadow=1;" parent="1" vertex="1">
          <mxGeometry x="230" y="270" width="80" height="50" as="geometry" />
        </mxCell>
        <mxCell id="4FT238xs0-JWQUUgrjXr-69" style="edgeStyle=orthogonalEdgeStyle;rounded=0;orthogonalLoop=1;jettySize=auto;html=1;exitX=1;exitY=0.25;exitDx=0;exitDy=0;entryX=0;entryY=0.75;entryDx=0;entryDy=0;shadow=1;" parent="1" source="4FT238xs0-JWQUUgrjXr-2" target="4FT238xs0-JWQUUgrjXr-57" edge="1">
          <mxGeometry relative="1" as="geometry" />
        </mxCell>
        <mxCell id="4FT238xs0-JWQUUgrjXr-70" style="edgeStyle=orthogonalEdgeStyle;rounded=0;orthogonalLoop=1;jettySize=auto;html=1;exitX=1;exitY=0.75;exitDx=0;exitDy=0;entryX=0;entryY=0.25;entryDx=0;entryDy=0;shadow=1;" parent="1" source="4FT238xs0-JWQUUgrjXr-2" target="4FT238xs0-JWQUUgrjXr-58" edge="1">
          <mxGeometry relative="1" as="geometry" />
        </mxCell>
        <mxCell id="4FT238xs0-JWQUUgrjXr-2" value="&lt;div&gt;Grafana&lt;/div&gt;" style="html=1;whiteSpace=wrap;shadow=1;" parent="1" vertex="1">
          <mxGeometry x="370" y="270" width="80" height="50" as="geometry" />
        </mxCell>
        <mxCell id="4FT238xs0-JWQUUgrjXr-24" style="edgeStyle=orthogonalEdgeStyle;rounded=0;orthogonalLoop=1;jettySize=auto;html=1;exitX=1;exitY=0.5;exitDx=0;exitDy=0;entryX=0.5;entryY=1;entryDx=0;entryDy=0;shadow=1;" parent="1" source="4FT238xs0-JWQUUgrjXr-4" target="4FT238xs0-JWQUUgrjXr-2" edge="1">
          <mxGeometry relative="1" as="geometry" />
        </mxCell>
        <mxCell id="4FT238xs0-JWQUUgrjXr-4" value="MySQL" style="shape=cylinder;whiteSpace=wrap;html=1;boundedLbl=1;backgroundOutline=1;shadow=1;" parent="1" vertex="1">
          <mxGeometry x="310" y="330" width="60" height="80" as="geometry" />
        </mxCell>
        <mxCell id="4FT238xs0-JWQUUgrjXr-57" value="&lt;div&gt;Dashboard&lt;/div&gt;" style="shape=hexagon;perimeter=hexagonPerimeter2;whiteSpace=wrap;html=1;fixedSize=1;shadow=1;" parent="1" vertex="1">
          <mxGeometry x="460" y="237.5" width="120" height="40" as="geometry" />
        </mxCell>
        <mxCell id="KcWclJ4Hr2_HyBvXS7Jj-16" style="edgeStyle=orthogonalEdgeStyle;rounded=0;orthogonalLoop=1;jettySize=auto;html=1;exitX=1;exitY=0.5;exitDx=0;exitDy=0;" parent="1" source="4FT238xs0-JWQUUgrjXr-58" target="KcWclJ4Hr2_HyBvXS7Jj-9" edge="1">
          <mxGeometry relative="1" as="geometry">
            <Array as="points">
              <mxPoint x="660" y="335" />
              <mxPoint x="660" y="378" />
            </Array>
          </mxGeometry>
        </mxCell>
        <mxCell id="4FT238xs0-JWQUUgrjXr-58" value="&lt;div&gt;Alertas&lt;/div&gt;" style="shape=hexagon;perimeter=hexagonPerimeter2;whiteSpace=wrap;html=1;fixedSize=1;shadow=1;" parent="1" vertex="1">
          <mxGeometry x="460" y="315" width="120" height="40" as="geometry" />
        </mxCell>
        <mxCell id="4FT238xs0-JWQUUgrjXr-64" value="&lt;div&gt;Hardware&lt;/div&gt;" style="text;html=1;align=center;verticalAlign=middle;resizable=0;points=[];autosize=1;strokeColor=none;fillColor=none;shadow=1;" parent="1" vertex="1">
          <mxGeometry x="450" y="470" width="80" height="30" as="geometry" />
        </mxCell>
        <mxCell id="4FT238xs0-JWQUUgrjXr-65" value="Host OS" style="text;html=1;align=center;verticalAlign=middle;resizable=0;points=[];autosize=1;strokeColor=none;fillColor=none;shadow=1;" parent="1" vertex="1">
          <mxGeometry x="440" y="450" width="70" height="30" as="geometry" />
        </mxCell>
        <mxCell id="4FT238xs0-JWQUUgrjXr-80" value="&lt;div&gt;&lt;b&gt;Visualização&lt;/b&gt;&lt;/div&gt;" style="html=1;dashed=0;whiteSpace=wrap;shape=mxgraph.dfd.start;shadow=1;" parent="1" vertex="1">
          <mxGeometry x="680" y="242.5" width="110" height="30" as="geometry" />
        </mxCell>
        <mxCell id="4FT238xs0-JWQUUgrjXr-82" style="edgeStyle=orthogonalEdgeStyle;rounded=0;orthogonalLoop=1;jettySize=auto;html=1;exitX=1;exitY=0.5;exitDx=0;exitDy=0;entryX=0;entryY=0.5;entryDx=0;entryDy=0;entryPerimeter=0;shadow=1;" parent="1" source="4FT238xs0-JWQUUgrjXr-57" target="4FT238xs0-JWQUUgrjXr-80" edge="1">
          <mxGeometry relative="1" as="geometry" />
        </mxCell>
        <mxCell id="4FT238xs0-JWQUUgrjXr-95" value="&lt;div&gt;Guest OS&lt;/div&gt;" style="text;html=1;align=center;verticalAlign=middle;resizable=0;points=[];autosize=1;strokeColor=none;fillColor=none;" parent="1" vertex="1">
          <mxGeometry x="414" y="410" width="80" height="30" as="geometry" />
        </mxCell>
        <mxCell id="4FT238xs0-JWQUUgrjXr-96" value="Hypervisor" style="text;html=1;align=center;verticalAlign=middle;resizable=0;points=[];autosize=1;strokeColor=none;fillColor=none;" parent="1" vertex="1">
          <mxGeometry x="430" y="430" width="80" height="30" as="geometry" />
        </mxCell>
        <mxCell id="KcWclJ4Hr2_HyBvXS7Jj-1" value="" style="rounded=1;whiteSpace=wrap;html=1;shadow=1;glass=0;perimeterSpacing=1;" parent="1" vertex="1">
          <mxGeometry x="40" y="242.5" width="105" height="210" as="geometry" />
        </mxCell>
        <mxCell id="KcWclJ4Hr2_HyBvXS7Jj-17" style="edgeStyle=orthogonalEdgeStyle;rounded=0;orthogonalLoop=1;jettySize=auto;html=1;exitX=1;exitY=0.5;exitDx=0;exitDy=0;entryX=0;entryY=0.5;entryDx=0;entryDy=0;" parent="1" source="KcWclJ4Hr2_HyBvXS7Jj-2" target="4FT238xs0-JWQUUgrjXr-1" edge="1">
          <mxGeometry relative="1" as="geometry">
            <Array as="points">
              <mxPoint x="160" y="318" />
              <mxPoint x="160" y="295" />
            </Array>
          </mxGeometry>
        </mxCell>
        <mxCell id="KcWclJ4Hr2_HyBvXS7Jj-2" value="&lt;div&gt;&lt;font style=&quot;font-size: 9px;&quot;&gt;Zabbix Agent&lt;/font&gt;&lt;/div&gt;" style="ellipse;whiteSpace=wrap;html=1;aspect=fixed;shadow=1;" parent="1" vertex="1">
          <mxGeometry x="72.5" y="297.5" width="40" height="40" as="geometry" />
        </mxCell>
        <mxCell id="KcWclJ4Hr2_HyBvXS7Jj-3" value="" style="edgeStyle=orthogonalEdgeStyle;rounded=0;orthogonalLoop=1;jettySize=auto;html=1;shadow=1;" parent="1" source="KcWclJ4Hr2_HyBvXS7Jj-4" target="KcWclJ4Hr2_HyBvXS7Jj-2" edge="1">
          <mxGeometry relative="1" as="geometry" />
        </mxCell>
        <mxCell id="KcWclJ4Hr2_HyBvXS7Jj-4" value="&lt;div&gt;Servidor&lt;/div&gt;" style="html=1;whiteSpace=wrap;shadow=1;" parent="1" vertex="1">
          <mxGeometry x="47.5" y="380" width="90" height="50" as="geometry" />
        </mxCell>
        <mxCell id="KcWclJ4Hr2_HyBvXS7Jj-5" value="Cluster" style="text;html=1;align=center;verticalAlign=middle;resizable=0;points=[];autosize=1;strokeColor=none;fillColor=none;fontStyle=1" parent="1" vertex="1">
          <mxGeometry x="62.5" y="255" width="60" height="30" as="geometry" />
        </mxCell>
        <mxCell id="KcWclJ4Hr2_HyBvXS7Jj-9" value="" style="rounded=1;whiteSpace=wrap;html=1;shadow=1;glass=0;perimeterSpacing=1;" parent="1" vertex="1">
          <mxGeometry x="680" y="302.5" width="110" height="150" as="geometry" />
        </mxCell>
        <mxCell id="KcWclJ4Hr2_HyBvXS7Jj-10" value="Email" style="html=1;dashed=0;whiteSpace=wrap;shape=mxgraph.dfd.start;shadow=1;" parent="1" vertex="1">
          <mxGeometry x="695" y="332.5" width="80" height="30" as="geometry" />
        </mxCell>
        <mxCell id="KcWclJ4Hr2_HyBvXS7Jj-11" value="&lt;div&gt;Aplicativos Terceiros&lt;/div&gt;" style="html=1;dashed=0;whiteSpace=wrap;shape=mxgraph.dfd.start;shadow=1;" parent="1" vertex="1">
          <mxGeometry x="695" y="372.5" width="80" height="30" as="geometry" />
        </mxCell>
        <mxCell id="KcWclJ4Hr2_HyBvXS7Jj-12" value="&lt;div&gt;etc.&lt;/div&gt;" style="html=1;dashed=0;whiteSpace=wrap;shape=mxgraph.dfd.start;shadow=1;" parent="1" vertex="1">
          <mxGeometry x="695" y="412.5" width="80" height="30" as="geometry" />
        </mxCell>
        <mxCell id="KcWclJ4Hr2_HyBvXS7Jj-13" value="&lt;div&gt;&lt;b&gt;Notificações&lt;/b&gt;&lt;/div&gt;" style="text;html=1;align=center;verticalAlign=middle;resizable=0;points=[];autosize=1;strokeColor=none;fillColor=none;" parent="1" vertex="1">
          <mxGeometry x="690" y="302.5" width="90" height="30" as="geometry" />
        </mxCell>
      </root>
    </mxGraphModel>
  </diagram>
</mxfile>
